<?xml version="1.0" encoding="UTF-8" standalone="no"?>
<!-- Created with Inkscape (http://www.inkscape.org/) -->

<svg
   xmlns:dc="http://purl.org/dc/elements/1.1/"
   xmlns:cc="http://creativecommons.org/ns#"
   xmlns:rdf="http://www.w3.org/1999/02/22-rdf-syntax-ns#"
   xmlns:svg="http://www.w3.org/2000/svg"
   xmlns="http://www.w3.org/2000/svg"
   xmlns:xlink="http://www.w3.org/1999/xlink"
   xmlns:sodipodi="http://sodipodi.sourceforge.net/DTD/sodipodi-0.dtd"
   xmlns:inkscape="http://www.inkscape.org/namespaces/inkscape"
   width="210mm"
   height="297mm"
   id="svg2"
   version="1.1"
   inkscape:version="0.47 r22583"
   sodipodi:docname="inst.svg"
   inkscape:export-filename="C:\Users\manu\Desktop\mrcards\branches\spot\data\inst.png"
   inkscape:export-xdpi="90"
   inkscape:export-ydpi="90">
  <defs
     id="defs4">
    <linearGradient
       id="linearGradient3709">
      <stop
         style="stop-color:#7e7e7e;stop-opacity:1"
         offset="0"
         id="stop3711" />
      <stop
         style="stop-color:#161616;stop-opacity:1;"
         offset="1"
         id="stop3713" />
    </linearGradient>
    <linearGradient
       inkscape:collect="always"
       id="linearGradient4453">
      <stop
         style="stop-color:#ffffff;stop-opacity:1;"
         offset="0"
         id="stop4455" />
      <stop
         style="stop-color:#ffffff;stop-opacity:0;"
         offset="1"
         id="stop4457" />
    </linearGradient>
    <linearGradient
       inkscape:collect="always"
       id="linearGradient2923">
      <stop
         style="stop-color:#ffffff;stop-opacity:1;"
         offset="0"
         id="stop2925" />
      <stop
         style="stop-color:#ffffff;stop-opacity:0;"
         offset="1"
         id="stop2927" />
    </linearGradient>
    <linearGradient
       inkscape:collect="always"
       id="linearGradient4478">
      <stop
         style="stop-color:#a7a7a7;stop-opacity:1"
         offset="0"
         id="stop4480" />
      <stop
         style="stop-color:#9c9c9c;stop-opacity:1"
         offset="1"
         id="stop4482" />
    </linearGradient>
    <linearGradient
       inkscape:collect="always"
       id="linearGradient4381">
      <stop
         style="stop-color:#7d7d7d;stop-opacity:1;"
         offset="0"
         id="stop4383" />
      <stop
         style="stop-color:#cecece;stop-opacity:1"
         offset="1"
         id="stop4385" />
    </linearGradient>
    <pattern
       inkscape:collect="always"
       xlink:href="#pattern3653"
       id="pattern4377"
       patternTransform="translate(-516.87009,-33.064966)" />
    <linearGradient
       id="linearGradient3641">
      <stop
         style="stop-color:#959595;stop-opacity:0;"
         offset="0"
         id="stop3643" />
      <stop
         id="stop3649"
         offset="0.5"
         style="stop-color:#3f3f3f;stop-opacity:1;" />
      <stop
         style="stop-color:#3f3f3f;stop-opacity:0;"
         offset="1"
         id="stop3645" />
    </linearGradient>
    <inkscape:perspective
       sodipodi:type="inkscape:persp3d"
       inkscape:vp_x="0 : 526.18109 : 1"
       inkscape:vp_y="0 : 1000 : 0"
       inkscape:vp_z="744.09448 : 526.18109 : 1"
       inkscape:persp3d-origin="372.04724 : 350.78739 : 1"
       id="perspective10" />
    <inkscape:perspective
       id="perspective2824"
       inkscape:persp3d-origin="0.5 : 0.33333333 : 1"
       inkscape:vp_z="1 : 0.5 : 1"
       inkscape:vp_y="0 : 1000 : 0"
       inkscape:vp_x="0 : 0.5 : 1"
       sodipodi:type="inkscape:persp3d" />
    <linearGradient
       inkscape:collect="always"
       xlink:href="#linearGradient3641"
       id="linearGradient3647"
       x1="-276.58481"
       y1="331.49207"
       x2="-273.05542"
       y2="331.49207"
       gradientUnits="userSpaceOnUse"
       gradientTransform="matrix(1.7163428,0,0,0.93807371,206.86629,20.211075)" />
    <pattern
       patternUnits="userSpaceOnUse"
       width="1280"
       height="800"
       patternTransform="translate(-80.484192,100.27517)"
       id="pattern3653">
      <image
         xlink:href="C:\Program Files\Inkscape\.\inkscape_pasted_image_20100513_112943.png"
         width="1280"
         height="800"
         id="image2826"
         x="0"
         y="0"
         sodipodi:absref="C:\Program Files\Inkscape\.\inkscape_pasted_image_20100513_112943.png" />
    </pattern>
    <linearGradient
       inkscape:collect="always"
       xlink:href="#linearGradient4381"
       id="linearGradient4387"
       x1="153.57143"
       y1="140.93361"
       x2="153.57143"
       y2="96.646454"
       gradientUnits="userSpaceOnUse"
       gradientTransform="matrix(21.901598,0,0,0.90322576,-2878.3527,-130.79277)" />
    <linearGradient
       inkscape:collect="always"
       xlink:href="#linearGradient4478"
       id="linearGradient4484"
       x1="-7.5761442"
       y1="502.573"
       x2="-7.5761442"
       y2="511.93057"
       gradientUnits="userSpaceOnUse"
       gradientTransform="matrix(19.336841,0,0,1,497.78722,-577.0335)" />
    <linearGradient
       inkscape:collect="always"
       xlink:href="#linearGradient3641"
       id="linearGradient4494"
       gradientUnits="userSpaceOnUse"
       gradientTransform="matrix(1.7163428,0,0,0.93807371,1237.2587,-677.36166)"
       x1="-276.58481"
       y1="331.49207"
       x2="-273.05542"
       y2="331.49207" />
    <filter
       inkscape:collect="always"
       id="filter4526"
       x="-0.53593952"
       width="2.071879"
       y="-1.5665924"
       height="4.1331848">
      <feGaussianBlur
         inkscape:collect="always"
         stdDeviation="17.143721"
         id="feGaussianBlur4528" />
    </filter>
    <filter
       inkscape:collect="always"
       id="filter4530"
       x="-0.18806947"
       width="1.3761389"
       y="-0.54974154"
       height="2.0994831">
      <feGaussianBlur
         inkscape:collect="always"
         stdDeviation="6.015997"
         id="feGaussianBlur4532" />
    </filter>
    <filter
       inkscape:collect="always"
       id="filter4534"
       x="-0.15544034"
       width="1.3108807"
       y="-0.45436407"
       height="1.9087281">
      <feGaussianBlur
         inkscape:collect="always"
         stdDeviation="4.972251"
         id="feGaussianBlur4536" />
    </filter>
    <clipPath
       clipPathUnits="userSpaceOnUse"
       id="clipPath4546">
      <path
         sodipodi:type="arc"
         style="fill:#666666;fill-opacity:1;stroke:none"
         id="path4548"
         sodipodi:cx="280.31732"
         sodipodi:cy="884.17181"
         sodipodi:rx="43.941635"
         sodipodi:ry="14.647212"
         d="m 324.25896,884.17181 a 43.941635,14.647212 0 1 1 -87.88327,0 43.941635,14.647212 0 1 1 87.88327,0 z"
         inkscape:export-filename="C:\Users\manu\Desktop\mrcards\branches\spot\data\slider.png"
         inkscape:export-xdpi="90"
         inkscape:export-ydpi="90"
         transform="matrix(0.51724187,0,0,0.60344864,156.53865,387.23752)" />
    </clipPath>
    <inkscape:perspective
       id="perspective2904"
       inkscape:persp3d-origin="0.5 : 0.33333333 : 1"
       inkscape:vp_z="1 : 0.5 : 1"
       inkscape:vp_y="0 : 1000 : 0"
       inkscape:vp_x="0 : 0.5 : 1"
       sodipodi:type="inkscape:persp3d" />
    <radialGradient
       inkscape:collect="always"
       xlink:href="#linearGradient2923"
       id="radialGradient2929"
       cx="45.714287"
       cy="107.00504"
       fx="45.714287"
       fy="107.00504"
       r="6.4285712"
       gradientUnits="userSpaceOnUse" />
    <radialGradient
       inkscape:collect="always"
       xlink:href="#linearGradient2923"
       id="radialGradient2933"
       gradientUnits="userSpaceOnUse"
       cx="45.714287"
       cy="107.00504"
       fx="45.714287"
       fy="107.00504"
       r="6.4285712" />
    <filter
       inkscape:collect="always"
       id="filter3707"
       x="-0.12056397"
       width="1.2411279"
       y="-0.12056397"
       height="1.2411279">
      <feGaussianBlur
         inkscape:collect="always"
         stdDeviation="0.64587837"
         id="feGaussianBlur3709" />
    </filter>
    <filter
       inkscape:collect="always"
       id="filter3711"
       x="-0.12159707"
       width="1.2431941"
       y="-0.12159707"
       height="1.2431941">
      <feGaussianBlur
         inkscape:collect="always"
         stdDeviation="0.65141287"
         id="feGaussianBlur3713" />
    </filter>
    <filter
       inkscape:collect="always"
       id="filter3715"
       x="-0.12159707"
       width="1.2431941"
       y="-0.12159707"
       height="1.2431941">
      <feGaussianBlur
         inkscape:collect="always"
         stdDeviation="0.65141287"
         id="feGaussianBlur3717" />
    </filter>
    <radialGradient
       inkscape:collect="always"
       xlink:href="#linearGradient4453"
       id="radialGradient4459"
       cx="-168.39285"
       cy="380.13004"
       fx="-168.39285"
       fy="380.13004"
       r="14.464286"
       gradientTransform="matrix(1,0,0,0.5,0,190.06502)"
       gradientUnits="userSpaceOnUse" />
    <radialGradient
       inkscape:collect="always"
       xlink:href="#linearGradient4453"
       id="radialGradient4463"
       gradientUnits="userSpaceOnUse"
       gradientTransform="matrix(1,0,0,0.5,0,190.06502)"
       cx="-168.39285"
       cy="380.13004"
       fx="-168.39285"
       fy="380.13004"
       r="14.464286" />
    <clipPath
       clipPathUnits="userSpaceOnUse"
       id="clipPath4472">
      <path
         sodipodi:type="arc"
         style="fill:none;stroke:#3a3a3a;stroke-opacity:1"
         id="path4474"
         sodipodi:cx="97.984795"
         sodipodi:cy="491.98007"
         sodipodi:rx="25.001276"
         sodipodi:ry="25.001276"
         d="m 122.98607,491.98007 a 25.001276,25.001276 0 1 1 -50.002551,0 25.001276,25.001276 0 1 1 50.002551,0 z"
         transform="matrix(0.44579518,0.23937868,-0.21184396,0.34126164,-106.73601,192.78536)" />
    </clipPath>
    <radialGradient
       inkscape:collect="always"
       xlink:href="#linearGradient4453"
       id="radialGradient4480"
       gradientUnits="userSpaceOnUse"
       gradientTransform="matrix(1,0,0,0.5,0,190.06502)"
       cx="-168.39285"
       cy="380.13004"
       fx="-168.39285"
       fy="380.13004"
       r="14.464286" />
    <inkscape:perspective
       id="perspective4490"
       inkscape:persp3d-origin="0.5 : 0.33333333 : 1"
       inkscape:vp_z="1 : 0.5 : 1"
       inkscape:vp_y="0 : 1000 : 0"
       inkscape:vp_x="0 : 0.5 : 1"
       sodipodi:type="inkscape:persp3d" />
    <radialGradient
       inkscape:collect="always"
       xlink:href="#linearGradient4453-7"
       id="radialGradient4480-1"
       gradientUnits="userSpaceOnUse"
       gradientTransform="matrix(1,0,0,0.5,0,190.06502)"
       cx="-168.39285"
       cy="380.13004"
       fx="-168.39285"
       fy="380.13004"
       r="14.464286" />
    <linearGradient
       inkscape:collect="always"
       id="linearGradient4453-7">
      <stop
         style="stop-color:#ffffff;stop-opacity:1;"
         offset="0"
         id="stop4455-4" />
      <stop
         style="stop-color:#ffffff;stop-opacity:0;"
         offset="1"
         id="stop4457-0" />
    </linearGradient>
    <clipPath
       clipPathUnits="userSpaceOnUse"
       id="clipPath4472-9">
      <path
         sodipodi:type="arc"
         style="fill:none;stroke:#3a3a3a;stroke-opacity:1"
         id="path4474-4"
         sodipodi:cx="97.984795"
         sodipodi:cy="491.98007"
         sodipodi:rx="25.001276"
         sodipodi:ry="25.001276"
         d="m 122.98607,491.98007 a 25.001276,25.001276 0 1 1 -50.002551,0 25.001276,25.001276 0 1 1 50.002551,0 z"
         transform="matrix(0.44579518,0.23937868,-0.21184396,0.34126164,-106.73601,192.78536)" />
    </clipPath>
    <radialGradient
       r="14.464286"
       fy="380.13004"
       fx="-168.39285"
       cy="380.13004"
       cx="-168.39285"
       gradientTransform="matrix(1,0,0,0.5,0,190.06502)"
       gradientUnits="userSpaceOnUse"
       id="radialGradient4501"
       xlink:href="#linearGradient4453-7"
       inkscape:collect="always" />
    <radialGradient
       inkscape:collect="always"
       xlink:href="#linearGradient4453"
       id="radialGradient4526"
       gradientUnits="userSpaceOnUse"
       gradientTransform="matrix(1,0,0,0.5,0,190.06502)"
       cx="-168.39285"
       cy="380.13004"
       fx="-168.39285"
       fy="380.13004"
       r="14.464286" />
    <radialGradient
       inkscape:collect="always"
       xlink:href="#linearGradient4453-7"
       id="radialGradient4536"
       gradientUnits="userSpaceOnUse"
       gradientTransform="matrix(1,0,0,0.5,0,190.06502)"
       cx="-168.39285"
       cy="380.13004"
       fx="-168.39285"
       fy="380.13004"
       r="14.464286" />
    <radialGradient
       inkscape:collect="always"
       xlink:href="#linearGradient3709"
       id="radialGradient3715"
       cx="49.546703"
       cy="110.38416"
       fx="49.546703"
       fy="110.38416"
       r="6.4285712"
       gradientUnits="userSpaceOnUse"
       gradientTransform="matrix(1.8397548,0,0,1.8397548,-41.607083,-92.695632)" />
    <radialGradient
       inkscape:collect="always"
       xlink:href="#linearGradient3709"
       id="radialGradient3729"
       gradientUnits="userSpaceOnUse"
       gradientTransform="matrix(1.8397548,0,0,1.8397548,-41.607083,-92.695632)"
       cx="49.546703"
       cy="110.38416"
       fx="49.546703"
       fy="110.38416"
       r="6.4285712" />
    <radialGradient
       inkscape:collect="always"
       xlink:href="#linearGradient2923"
       id="radialGradient3731"
       gradientUnits="userSpaceOnUse"
       cx="45.714287"
       cy="107.00504"
       fx="45.714287"
       fy="107.00504"
       r="6.4285712" />
    <radialGradient
       inkscape:collect="always"
       xlink:href="#linearGradient2923"
       id="radialGradient3733"
       gradientUnits="userSpaceOnUse"
       cx="45.714287"
       cy="107.00504"
       fx="45.714287"
       fy="107.00504"
       r="6.4285712" />
    <radialGradient
       inkscape:collect="always"
       xlink:href="#linearGradient3709"
       id="radialGradient3745"
       gradientUnits="userSpaceOnUse"
       gradientTransform="matrix(1.8397548,0,0,1.8397548,-41.607083,-92.695632)"
       cx="49.546703"
       cy="110.38416"
       fx="49.546703"
       fy="110.38416"
       r="6.4285712" />
    <radialGradient
       inkscape:collect="always"
       xlink:href="#linearGradient2923"
       id="radialGradient3747"
       gradientUnits="userSpaceOnUse"
       cx="45.714287"
       cy="107.00504"
       fx="45.714287"
       fy="107.00504"
       r="6.4285712" />
    <radialGradient
       inkscape:collect="always"
       xlink:href="#linearGradient2923"
       id="radialGradient3749"
       gradientUnits="userSpaceOnUse"
       cx="45.714287"
       cy="107.00504"
       fx="45.714287"
       fy="107.00504"
       r="6.4285712" />
    <radialGradient
       inkscape:collect="always"
       xlink:href="#linearGradient3709"
       id="radialGradient3761"
       gradientUnits="userSpaceOnUse"
       gradientTransform="matrix(1.8397548,0,0,1.8397548,-41.607083,-92.695632)"
       cx="49.546703"
       cy="110.38416"
       fx="49.546703"
       fy="110.38416"
       r="6.4285712" />
    <radialGradient
       inkscape:collect="always"
       xlink:href="#linearGradient2923"
       id="radialGradient3763"
       gradientUnits="userSpaceOnUse"
       cx="45.714287"
       cy="107.00504"
       fx="45.714287"
       fy="107.00504"
       r="6.4285712" />
    <radialGradient
       inkscape:collect="always"
       xlink:href="#linearGradient2923"
       id="radialGradient3765"
       gradientUnits="userSpaceOnUse"
       cx="45.714287"
       cy="107.00504"
       fx="45.714287"
       fy="107.00504"
       r="6.4285712" />
  </defs>
  <sodipodi:namedview
     id="base"
     pagecolor="#ffffff"
     bordercolor="#666666"
     borderopacity="1.0"
     inkscape:pageopacity="0.0"
     inkscape:pageshadow="2"
     inkscape:zoom="11.2"
     inkscape:cx="-111.10597"
     inkscape:cy="925.71152"
     inkscape:document-units="px"
     inkscape:current-layer="layer1"
     showgrid="false"
     inkscape:window-width="1280"
     inkscape:window-height="748"
     inkscape:window-x="-8"
     inkscape:window-y="-8"
     inkscape:window-maximized="1" />
  <metadata
     id="metadata7">
    <rdf:RDF>
      <cc:Work
         rdf:about="">
        <dc:format>image/svg+xml</dc:format>
        <dc:type
           rdf:resource="http://purl.org/dc/dcmitype/StillImage" />
        <dc:title></dc:title>
      </cc:Work>
    </rdf:RDF>
  </metadata>
  <g
     inkscape:label="Capa 1"
     inkscape:groupmode="layer"
     id="layer1">
    <path
       inkscape:export-ydpi="90"
       inkscape:export-xdpi="90"
       inkscape:export-filename="C:\Users\manu\Desktop\mrcards\branches\spot\data\close.png"
       transform="matrix(1.1642837,0,0,1.1642837,-180.37735,-12.295264)"
       d="m 52.142858,107.00504 a 6.4285712,6.4285712 0 1 1 -12.857142,0 6.4285712,6.4285712 0 1 1 12.857142,0 z"
       sodipodi:ry="6.4285712"
       sodipodi:rx="6.4285712"
       sodipodi:cy="107.00504"
       sodipodi:cx="45.714287"
       id="path3705"
       style="opacity:0.5;fill:url(#radialGradient3715);fill-opacity:1;stroke:none"
       sodipodi:type="arc" />
    <g
       id="g4399"
       transform="matrix(0.86030238,0,0,0.86030238,-208.97123,-61.508968)"
       inkscape:export-filename="C:\Users\manu\Desktop\mrcards\branches\spot\data\play.png"
       inkscape:export-xdpi="90"
       inkscape:export-ydpi="90">
      <path
         sodipodi:nodetypes="cccc"
         id="path4393"
         d="m 107.05197,497.1059 0,21.35241 18.04497,-10.09444 -18.04497,-11.25797 z"
         style="fill:#b6b6b6;fill-opacity:1;stroke:none" />
      <path
         style="fill:#3a3a3a;fill-opacity:1;stroke:none"
         d="m 107.07616,496.76533 0,20.46854 17.28737,-9.67658 -17.28737,-10.79196 z"
         id="path4391"
         sodipodi:nodetypes="cccc" />
      <path
         sodipodi:nodetypes="cccc"
         id="path4389"
         d="m 108.21259,497.90176 0,18.95331 15.5196,-8.96025 -15.5196,-9.99306 z"
         style="fill:#4b4b4b;fill-opacity:1;stroke:none" />
    </g>
    <path
       sodipodi:type="arc"
       style="fill:#78b35d;fill-opacity:1;stroke:none"
       id="path4449"
       sodipodi:cx="-168.39285"
       sodipodi:cy="380.13004"
       sodipodi:rx="14.464286"
       sodipodi:ry="7.2321429"
       d="m -153.92857,380.13004 a 14.464286,7.2321429 0 1 1 -28.92857,0 14.464286,7.2321429 0 1 1 28.92857,0 z"
       transform="matrix(3.8580247,0,0,4.1481481,504.75307,-1148.5807)" />
    <path
       style="fill:url(#pattern4377);stroke:none"
       d="m -16.167149,54.316114 0,505.093746 585.906249,0 0,-505.093746 -585.906249,0 z"
       id="rect3656" />
    <rect
       style="fill:#3a3a3a;fill-opacity:1;fill-rule:evenodd;stroke:none"
       id="rect2830"
       width="111.90632"
       height="574.46185"
       x="-358.47717"
       y="39.142124"
       inkscape:export-filename="C:\Users\manu\Desktop\mrcards\branches\spot\data\menu.png"
       inkscape:export-xdpi="90"
       inkscape:export-ydpi="90" />
    <rect
       style="opacity:0.8;fill:url(#linearGradient3647);fill-opacity:1;stroke:none"
       id="rect3639"
       width="6.0507627"
       height="530.34668"
       x="-267.84674"
       y="61.199707"
       inkscape:export-filename="C:\Users\manu\Desktop\mrcards\branches\spot\data\rect3637.png"
       inkscape:export-xdpi="90"
       inkscape:export-ydpi="90" />
    <rect
       style="opacity:0.8;fill:#303030;fill-opacity:1;stroke:none"
       id="rect3635"
       width="1"
       height="565.35718"
       x="-266.07144"
       y="43.694469"
       inkscape:export-filename="C:\Users\manu\Desktop\mrcards\branches\spot\data\rect3637.png"
       inkscape:export-xdpi="90"
       inkscape:export-ydpi="90" />
    <rect
       y="43.694469"
       x="-265.32135"
       height="565.35718"
       width="1"
       id="rect3637"
       style="opacity:0.8;fill:#3f3f3f;fill-opacity:1;stroke:none"
       inkscape:export-xdpi="90"
       inkscape:export-ydpi="90" />
    <rect
       style="fill:url(#linearGradient4387);fill-opacity:1;stroke:none"
       id="rect4379"
       width="922.99591"
       height="40"
       x="-281.44897"
       y="-43.497898"
       inkscape:export-filename="C:\Users\manu\Desktop\mrcards\branches\spot\data\top.png"
       inkscape:export-xdpi="90"
       inkscape:export-ydpi="90" />
    <g
       id="g4404"
       transform="translate(-225.29497,-132.04627)"
       inkscape:export-filename="C:\Users\manu\Desktop\mrcards\branches\spot\data\play.png"
       inkscape:export-xdpi="90"
       inkscape:export-ydpi="90">
      <path
         clip-path="url(#clipPath4472-9)"
         sodipodi:type="arc"
         style="opacity:0.2;fill:url(#radialGradient4501);fill-opacity:1;stroke:none"
         id="path4478"
         sodipodi:cx="-168.39285"
         sodipodi:cy="380.13004"
         sodipodi:rx="14.464286"
         sodipodi:ry="7.2321429"
         d="m -153.92857,380.13004 a 14.464286,7.2321429 0 1 1 -28.92857,0 14.464286,7.2321429 0 1 1 28.92857,0 z"
         transform="matrix(1.2825323,-0.8996349,0.7961537,1.6753911,22.475031,-287.56631)" />
      <path
         sodipodi:type="arc"
         style="fill:none;stroke:#a7a7a7;stroke-opacity:1"
         id="path4397"
         sodipodi:cx="97.984795"
         sodipodi:cy="491.98007"
         sodipodi:rx="25.001276"
         sodipodi:ry="25.001276"
         d="m 122.98607,491.98007 c 0,13.80783 -11.19345,25.00128 -25.001275,25.00128 -13.807824,0 -25.001276,-11.19345 -25.001276,-25.00128 0,-13.80782 11.193452,-25.00127 25.001276,-25.00127 13.807825,0 25.001275,11.19345 25.001275,25.00127 z"
         transform="matrix(0.76232894,0,0,0.76232894,39.986306,132.54345)"
         inkscape:export-filename="C:\Users\manu\Desktop\mrcards\branches\spot\data\play.png"
         inkscape:export-xdpi="90"
         inkscape:export-ydpi="90" />
      <path
         transform="matrix(0.76232894,0,0,0.76232894,39.450591,131.82917)"
         d="m 122.98607,491.98007 c 0,13.80783 -11.19345,25.00128 -25.001275,25.00128 -13.807824,0 -25.001276,-11.19345 -25.001276,-25.00128 0,-13.80782 11.193452,-25.00127 25.001276,-25.00127 13.807825,0 25.001275,11.19345 25.001275,25.00127 z"
         sodipodi:ry="25.001276"
         sodipodi:rx="25.001276"
         sodipodi:cy="491.98007"
         sodipodi:cx="97.984795"
         id="path4395"
         style="fill:none;stroke:#3a3a3a;stroke-opacity:1"
         sodipodi:type="arc"
         inkscape:export-xdpi="90"
         inkscape:export-ydpi="90" />
    </g>
    <g
       id="g4416">
      <g
         id="g4408"
         transform="translate(-206.21294,19.625139)"
         inkscape:export-filename="C:\Users\manu\Desktop\mrcards\branches\spot\data\play.png"
         inkscape:export-xdpi="90"
         inkscape:export-ydpi="90">
        <path
           sodipodi:nodetypes="cccc"
           id="path4410"
           d="m 107.05197,497.1059 0,21.35241 18.04497,-10.09444 -18.04497,-11.25797 z"
           style="fill:#b6b6b6;fill-opacity:1;stroke:none" />
        <path
           style="fill:#3a3a3a;fill-opacity:1;stroke:none"
           d="m 107.07616,496.76533 0,20.46854 17.28737,-9.67658 -17.28737,-10.79196 z"
           id="path4412"
           sodipodi:nodetypes="cccc" />
        <path
           sodipodi:nodetypes="cccc"
           id="path4414"
           d="m 108.21259,497.90176 0,18.95331 15.5196,-8.96025 -15.5196,-9.99306 z"
           style="fill:#4b4b4b;fill-opacity:1;stroke:none" />
      </g>
    </g>
    <g
       id="g4422"
       transform="matrix(0.47472584,0,0,0.47472584,-11.372409,265.15824)"
       inkscape:export-filename="C:\Users\manu\Desktop\mrcards\branches\spot\data\fw.png"
       inkscape:export-xdpi="90"
       inkscape:export-ydpi="90">
      <g
         inkscape:export-ydpi="90"
         inkscape:export-xdpi="90"
         inkscape:export-filename="C:\Users\manu\Desktop\mrcards\branches\spot\data\play.png"
         transform="translate(-206.21294,19.625139)"
         id="g4424">
        <path
           style="fill:#b6b6b6;fill-opacity:1;stroke:none"
           d="m 107.05197,497.1059 0,21.35241 18.04497,-10.09444 -18.04497,-11.25797 z"
           id="path4426"
           sodipodi:nodetypes="cccc" />
        <path
           sodipodi:nodetypes="cccc"
           id="path4428"
           d="m 107.07616,496.76533 0,20.46854 17.28737,-9.67658 -17.28737,-10.79196 z"
           style="fill:#3a3a3a;fill-opacity:1;stroke:none" />
        <path
           style="fill:#4b4b4b;fill-opacity:1;stroke:none"
           d="m 108.21259,497.90176 0,18.95331 15.5196,-8.96025 -15.5196,-9.99306 z"
           id="path4430"
           sodipodi:nodetypes="cccc" />
      </g>
    </g>
    <g
       transform="matrix(0.47472584,0,0,0.47472584,-2.6081392,265.15824)"
       id="g4432"
       inkscape:export-filename="C:\Users\manu\Desktop\mrcards\branches\spot\data\fw.png"
       inkscape:export-xdpi="90"
       inkscape:export-ydpi="90">
      <g
         id="g4434"
         transform="translate(-206.21294,19.625139)"
         inkscape:export-filename="C:\Users\manu\Desktop\mrcards\branches\spot\data\play.png"
         inkscape:export-xdpi="90"
         inkscape:export-ydpi="90">
        <path
           sodipodi:nodetypes="cccc"
           id="path4436"
           d="m 107.05197,497.1059 0,21.35241 18.04497,-10.09444 -18.04497,-11.25797 z"
           style="fill:#b6b6b6;fill-opacity:1;stroke:none" />
        <path
           style="fill:#3a3a3a;fill-opacity:1;stroke:none"
           d="m 107.07616,496.76533 0,20.46854 17.28737,-9.67658 -17.28737,-10.79196 z"
           id="path4438"
           sodipodi:nodetypes="cccc" />
        <path
           sodipodi:nodetypes="cccc"
           id="path4440"
           d="m 108.21259,497.90176 0,18.95331 15.5196,-8.96025 -15.5196,-9.99306 z"
           style="fill:#4b4b4b;fill-opacity:1;stroke:none" />
      </g>
    </g>
    <path
       sodipodi:nodetypes="cccc"
       id="path4446"
       d="m -49.880267,541.85036 0,-10.13654 -8.56642,4.79209 8.56642,5.34445 z"
       style="fill:#b6b6b6;fill-opacity:1;stroke:none"
       inkscape:export-filename="C:\Users\manu\Desktop\mrcards\branches\spot\data\rw.png"
       inkscape:export-xdpi="90"
       inkscape:export-ydpi="90" />
    <path
       style="fill:#3a3a3a;fill-opacity:1;stroke:none"
       d="m -50.22844,541.26908 0,-9.71694 -8.20676,4.59372 8.20676,5.12322 z"
       id="path4448"
       sodipodi:nodetypes="cccc"
       inkscape:export-filename="C:\Users\manu\Desktop\mrcards\branches\spot\data\rw.png"
       inkscape:export-xdpi="90"
       inkscape:export-ydpi="90" />
    <path
       sodipodi:nodetypes="cccc"
       id="path4450"
       d="m -50.528154,541.08926 0,-8.99763 -7.36755,4.25366 7.36755,4.74397 z"
       style="fill:#4b4b4b;fill-opacity:1;stroke:none"
       inkscape:export-filename="C:\Users\manu\Desktop\mrcards\branches\spot\data\rw.png"
       inkscape:export-xdpi="90"
       inkscape:export-ydpi="90" />
    <path
       style="fill:#b6b6b6;fill-opacity:1;stroke:none"
       d="m -41.115997,541.85036 0,-10.13654 -8.56642,4.79209 8.56642,5.34445 z"
       id="path4456"
       sodipodi:nodetypes="cccc"
       inkscape:export-filename="C:\Users\manu\Desktop\mrcards\branches\spot\data\rw.png"
       inkscape:export-xdpi="90"
       inkscape:export-ydpi="90" />
    <path
       sodipodi:nodetypes="cccc"
       id="path4458"
       d="m -41.46417,541.26908 0,-9.71694 -8.20676,4.59372 8.20676,5.12322 z"
       style="fill:#3a3a3a;fill-opacity:1;stroke:none"
       inkscape:export-filename="C:\Users\manu\Desktop\mrcards\branches\spot\data\rw.png"
       inkscape:export-xdpi="90"
       inkscape:export-ydpi="90" />
    <path
       style="fill:#4b4b4b;fill-opacity:1;stroke:none"
       d="m -41.763884,541.08926 0,-8.99763 -7.36755,4.25366 7.36755,4.74397 z"
       id="path4460"
       sodipodi:nodetypes="cccc"
       inkscape:export-filename="C:\Users\manu\Desktop\mrcards\branches\spot\data\rw.png"
       inkscape:export-xdpi="90"
       inkscape:export-ydpi="90" />
    <rect
       style="fill:url(#linearGradient4484);fill-opacity:1;stroke:none"
       id="rect4476"
       width="927.82507"
       height="45.961941"
       x="-293.30573"
       y="-111.06484"
       inkscape:export-filename="C:\Users\manu\Desktop\mrcards\branches\spot\data\bottom.png"
       inkscape:export-xdpi="90"
       inkscape:export-ydpi="90" />
    <rect
       inkscape:export-ydpi="90"
       inkscape:export-xdpi="90"
       inkscape:export-filename="C:\Users\manu\Desktop\mrcards\branches\spot\data\slid.png"
       y="-636.37305"
       x="762.54565"
       height="530.34668"
       width="6.0507627"
       id="rect4488"
       style="opacity:0.5;fill:url(#linearGradient4494);fill-opacity:1;stroke:none"
       transform="matrix(0,1,-1,0,0,0)" />
    <rect
       inkscape:export-ydpi="90"
       inkscape:export-xdpi="90"
       inkscape:export-filename="C:\Users\manu\Desktop\mrcards\branches\spot\data\slid.png"
       y="-633.9278"
       x="765.07104"
       height="525.45618"
       width="1"
       id="rect4490"
       style="opacity:0.5;fill:#303030;fill-opacity:1;stroke:none"
       transform="matrix(0,1,-1,0,0,0)" />
    <rect
       inkscape:export-ydpi="90"
       inkscape:export-xdpi="90"
       style="opacity:0.50000000000000000;fill:#797979;fill-opacity:1;stroke:none"
       id="rect4492"
       width="1"
       height="527.98157"
       x="765.07104"
       y="-635.19049"
       transform="matrix(0,1,-1,0,0,0)"
       inkscape:export-filename="C:\Users\manu\Desktop\mrcards\branches\spot\data\slid.png" />
    <g
       id="g4540"
       clip-path="url(#clipPath4546)"
       inkscape:export-xdpi="90"
       inkscape:export-ydpi="90"
       inkscape:export-filename="C:\Users\manu\Desktop\mrcards\branches\spot\data\slider.png">
      <path
         sodipodi:type="arc"
         style="fill:#666666;fill-opacity:1;stroke:none"
         id="path4502"
         sodipodi:cx="280.31732"
         sodipodi:cy="884.17181"
         sodipodi:rx="43.941635"
         sodipodi:ry="14.647212"
         d="m 324.25896,884.17181 a 43.941635,14.647212 0 1 1 -87.88327,0 43.941635,14.647212 0 1 1 87.88327,0 z"
         inkscape:export-filename="C:\Users\manu\Desktop\mrcards\branches\spot\data\slider.png"
         inkscape:export-xdpi="90"
         inkscape:export-ydpi="90"
         transform="matrix(0.51724187,0,0,0.60344864,156.53865,387.23752)" />
      <path
         transform="matrix(0.52233877,0,0,0.60939502,155.56581,382.62024)"
         inkscape:export-ydpi="90"
         inkscape:export-xdpi="90"
         inkscape:export-filename="C:\Users\manu\Desktop\mrcards\branches\spot\data\slider.png"
         d="m 317.18789,882.65656 a 38.385796,13.131983 0 1 1 -76.77159,0 38.385796,13.131983 0 1 1 76.77159,0 z"
         sodipodi:ry="13.131983"
         sodipodi:rx="38.385796"
         sodipodi:cy="882.65656"
         sodipodi:cx="278.80209"
         id="path4510"
         style="fill:#808080;fill-opacity:1;stroke:none;filter:url(#filter4534)"
         sodipodi:type="arc" />
      <path
         sodipodi:type="arc"
         style="fill:#999999;fill-opacity:1;stroke:none;filter:url(#filter4530)"
         id="path4504"
         sodipodi:cx="278.80209"
         sodipodi:cy="882.65656"
         sodipodi:rx="38.385796"
         sodipodi:ry="13.131983"
         d="m 317.18789,882.65656 a 38.385796,13.131983 0 1 1 -76.77159,0 38.385796,13.131983 0 1 1 76.77159,0 z"
         inkscape:export-filename="C:\Users\manu\Desktop\mrcards\branches\spot\data\slider.png"
         inkscape:export-xdpi="90"
         inkscape:export-ydpi="90"
         transform="matrix(0.43171555,0,0,0.50366797,178.6158,475.05704)" />
      <path
         transform="matrix(0.15149567,0,0,0.17674489,261.28738,760.58738)"
         inkscape:export-ydpi="90"
         inkscape:export-xdpi="90"
         inkscape:export-filename="C:\Users\manu\Desktop\mrcards\branches\spot\data\slider.png"
         d="m 317.18789,882.65656 a 38.385796,13.131983 0 1 1 -76.77159,0 38.385796,13.131983 0 1 1 76.77159,0 z"
         sodipodi:ry="13.131983"
         sodipodi:rx="38.385796"
         sodipodi:cy="882.65656"
         sodipodi:cx="278.80209"
         id="path4512"
         style="fill:#b3b3b3;fill-opacity:1;stroke:none;filter:url(#filter4526)"
         sodipodi:type="arc" />
    </g>
    <g
       inkscape:export-ydpi="90"
       inkscape:export-xdpi="90"
       inkscape:export-filename="C:\Users\manu\Desktop\mrcards\branches\spot\data\play.png"
       transform="matrix(0.86030238,0,0,0.86030238,-163.61517,-77.106688)"
       id="g4550">
      <g
         id="g4576"
         transform="translate(2.6714487,-27.601955)"
         inkscape:export-filename="C:\Users\manu\Desktop\mrcards\branches\spot\data\pause.png"
         inkscape:export-xdpi="90"
         inkscape:export-ydpi="90">
        <rect
           style="fill:#3a3a3a;fill-opacity:1;stroke:none"
           id="rect4566"
           width="7.0583887"
           height="19.937744"
           x="102.55238"
           y="543.37537" />
        <rect
           y="544.08966"
           x="103.17738"
           height="19.223537"
           width="6.4333773"
           id="rect4568"
           style="fill:#b6b6b6;fill-opacity:1;stroke:none" />
        <rect
           y="544.08966"
           x="103.17738"
           height="18.687822"
           width="5.8083773"
           id="rect4564"
           style="fill:#4b4b4b;fill-opacity:1;stroke:none" />
        <rect
           y="543.37537"
           x="113.0881"
           height="19.937744"
           width="7.0583887"
           id="rect4570"
           style="fill:#3a3a3a;fill-opacity:1;stroke:none" />
        <rect
           style="fill:#b6b6b6;fill-opacity:1;stroke:none"
           id="rect4572"
           width="6.4333773"
           height="19.223537"
           x="113.7131"
           y="544.08966" />
        <rect
           style="fill:#4b4b4b;fill-opacity:1;stroke:none"
           id="rect4574"
           width="5.8083773"
           height="18.687822"
           x="113.7131"
           y="544.08966" />
      </g>
    </g>
    <path
       sodipodi:type="arc"
       style="fill:#990000;fill-opacity:1;stroke:none"
       id="path2892"
       sodipodi:cx="45.714287"
       sodipodi:cy="107.00504"
       sodipodi:rx="6.4285712"
       sodipodi:ry="6.4285712"
       d="m 52.142858,107.00504 a 6.4285712,6.4285712 0 1 1 -12.857142,0 6.4285712,6.4285712 0 1 1 12.857142,0 z"
       transform="translate(-172.86724,5.2839224)"
       inkscape:export-filename="C:\Users\manu\Desktop\mrcards\branches\spot\data\close.png"
       inkscape:export-xdpi="90"
       inkscape:export-ydpi="90" />
    <path
       transform="matrix(0.77525853,0,0,0.94107443,-162.59335,11.589256)"
       d="m 52.142858,107.00504 a 6.4285712,6.4285712 0 1 1 -12.857142,0 6.4285712,6.4285712 0 1 1 12.857142,0 z"
       sodipodi:ry="6.4285712"
       sodipodi:rx="6.4285712"
       sodipodi:cy="107.00504"
       sodipodi:cx="45.714287"
       id="path2894"
       style="fill:#ff3300;fill-opacity:1;stroke:none;filter:url(#filter3707)"
       sodipodi:type="arc" />
    <path
       sodipodi:type="arc"
       style="fill:url(#radialGradient2929);fill-opacity:1;stroke:none;filter:url(#filter3715)"
       id="path2921"
       sodipodi:cx="45.714287"
       sodipodi:cy="107.00504"
       sodipodi:rx="6.4285712"
       sodipodi:ry="6.4285712"
       d="m 52.142858,107.00504 a 6.4285712,6.4285712 0 1 1 -12.857142,0 6.4285712,6.4285712 0 1 1 12.857142,0 z"
       transform="matrix(0.45163872,0,0,0.32601508,-148.06716,73.385851)" />
    <path
       transform="matrix(0.94227672,0,0,0.68018176,-170.49632,44.282873)"
       d="m 52.142858,107.00504 a 6.4285712,6.4285712 0 1 1 -12.857142,0 6.4285712,6.4285712 0 1 1 12.857142,0 z"
       sodipodi:ry="6.4285712"
       sodipodi:rx="6.4285712"
       sodipodi:cy="107.00504"
       sodipodi:cx="45.714287"
       id="path2931"
       style="fill:url(#radialGradient2933);fill-opacity:1;stroke:none;filter:url(#filter3711);opacity:0.7"
       sodipodi:type="arc" />
    <g
       inkscape:export-ydpi="90"
       inkscape:export-xdpi="90"
       inkscape:export-filename="C:\Users\manu\Desktop\mrcards\branches\spot\data\pause.png"
       transform="translate(-179.93783,-132.04627)"
       id="g4528">
      <path
         transform="matrix(1.2825323,-0.8996349,0.7961537,1.6753911,22.475031,-287.56631)"
         d="m -153.92857,380.13004 c 0,3.9942 -6.47588,7.23214 -14.46428,7.23214 -7.98841,0 -14.46429,-3.23794 -14.46429,-7.23214 0,-3.99421 6.47588,-7.23215 14.46429,-7.23215 7.9884,0 14.46428,3.23794 14.46428,7.23215 z"
         sodipodi:ry="7.2321429"
         sodipodi:rx="14.464286"
         sodipodi:cy="380.13004"
         sodipodi:cx="-168.39285"
         id="path4530"
         style="opacity:0.2;fill:url(#radialGradient4536);fill-opacity:1;stroke:none"
         sodipodi:type="arc"
         clip-path="url(#clipPath4472-9)" />
      <path
         inkscape:export-ydpi="90"
         inkscape:export-xdpi="90"
         inkscape:export-filename="C:\Users\manu\Desktop\mrcards\branches\spot\data\play.png"
         transform="matrix(0.76232894,0,0,0.76232894,39.986306,132.54345)"
         d="m 122.98607,491.98007 c 0,13.80783 -11.19345,25.00128 -25.001275,25.00128 -13.807824,0 -25.001276,-11.19345 -25.001276,-25.00128 0,-13.80782 11.193452,-25.00127 25.001276,-25.00127 13.807825,0 25.001275,11.19345 25.001275,25.00127 z"
         sodipodi:ry="25.001276"
         sodipodi:rx="25.001276"
         sodipodi:cy="491.98007"
         sodipodi:cx="97.984795"
         id="path4532"
         style="fill:none;stroke:#a7a7a7;stroke-opacity:1"
         sodipodi:type="arc" />
      <path
         inkscape:export-ydpi="90"
         inkscape:export-xdpi="90"
         sodipodi:type="arc"
         style="fill:none;stroke:#3a3a3a;stroke-opacity:1"
         id="path4534"
         sodipodi:cx="97.984795"
         sodipodi:cy="491.98007"
         sodipodi:rx="25.001276"
         sodipodi:ry="25.001276"
         d="m 122.98607,491.98007 c 0,13.80783 -11.19345,25.00128 -25.001275,25.00128 -13.807824,0 -25.001276,-11.19345 -25.001276,-25.00128 0,-13.80782 11.193452,-25.00127 25.001276,-25.00127 13.807825,0 25.001275,11.19345 25.001275,25.00127 z"
         transform="matrix(0.76232894,0,0,0.76232894,39.450591,131.82917)" />
    </g>
    <path
       sodipodi:type="arc"
       style="opacity:0.5;fill:url(#radialGradient3729);fill-opacity:1;stroke:none"
       id="path3719"
       sodipodi:cx="45.714287"
       sodipodi:cy="107.00504"
       sodipodi:rx="6.4285712"
       sodipodi:ry="6.4285712"
       d="m 52.142858,107.00504 a 6.4285712,6.4285712 0 1 1 -12.857142,0 6.4285712,6.4285712 0 1 1 12.857142,0 z"
       transform="matrix(1.1642837,0,0,1.1642837,-201.27021,-12.295264)"
       inkscape:export-filename="C:\Users\manu\Desktop\mrcards\branches\spot\data\close.png"
       inkscape:export-xdpi="90"
       inkscape:export-ydpi="90" />
    <path
       inkscape:export-ydpi="90"
       inkscape:export-xdpi="90"
       inkscape:export-filename="C:\Users\manu\Desktop\mrcards\branches\spot\data\close.png"
       transform="translate(-193.7601,5.2839224)"
       d="m 52.142858,107.00504 a 6.4285712,6.4285712 0 1 1 -12.857142,0 6.4285712,6.4285712 0 1 1 12.857142,0 z"
       sodipodi:ry="6.4285712"
       sodipodi:rx="6.4285712"
       sodipodi:cy="107.00504"
       sodipodi:cx="45.714287"
       id="path3721"
       style="fill:#cc9900;fill-opacity:1;stroke:none"
       sodipodi:type="arc" />
    <path
       sodipodi:type="arc"
       style="fill:#ffcc00;fill-opacity:1;stroke:none;filter:url(#filter3707)"
       id="path3723"
       sodipodi:cx="45.714287"
       sodipodi:cy="107.00504"
       sodipodi:rx="6.4285712"
       sodipodi:ry="6.4285712"
       d="m 52.142858,107.00504 a 6.4285712,6.4285712 0 1 1 -12.857142,0 6.4285712,6.4285712 0 1 1 12.857142,0 z"
       transform="matrix(0.77525853,0,0,0.94107443,-183.48621,11.589256)" />
    <path
       transform="matrix(0.45163872,0,0,0.32601508,-168.96002,73.385851)"
       d="m 52.142858,107.00504 a 6.4285712,6.4285712 0 1 1 -12.857142,0 6.4285712,6.4285712 0 1 1 12.857142,0 z"
       sodipodi:ry="6.4285712"
       sodipodi:rx="6.4285712"
       sodipodi:cy="107.00504"
       sodipodi:cx="45.714287"
       id="path3725"
       style="fill:url(#radialGradient3731);fill-opacity:1;stroke:none;filter:url(#filter3715)"
       sodipodi:type="arc" />
    <path
       sodipodi:type="arc"
       style="fill:url(#radialGradient3733);fill-opacity:1;stroke:none;filter:url(#filter3711);opacity:0.7"
       id="path3727"
       sodipodi:cx="45.714287"
       sodipodi:cy="107.00504"
       sodipodi:rx="6.4285712"
       sodipodi:ry="6.4285712"
       d="m 52.142858,107.00504 a 6.4285712,6.4285712 0 1 1 -12.857142,0 6.4285712,6.4285712 0 1 1 12.857142,0 z"
       transform="matrix(0.94227672,0,0,0.68018176,-191.38918,44.282873)" />
    <path
       inkscape:export-ydpi="90"
       inkscape:export-xdpi="90"
       inkscape:export-filename="C:\Users\manu\Desktop\mrcards\branches\spot\data\close.png"
       transform="matrix(1.1642837,0,0,1.1642837,-220.71565,-12.295264)"
       d="m 52.142858,107.00504 a 6.4285712,6.4285712 0 1 1 -12.857142,0 6.4285712,6.4285712 0 1 1 12.857142,0 z"
       sodipodi:ry="6.4285712"
       sodipodi:rx="6.4285712"
       sodipodi:cy="107.00504"
       sodipodi:cx="45.714287"
       id="path3735"
       style="opacity:0.5;fill:url(#radialGradient3745);fill-opacity:1;stroke:none"
       sodipodi:type="arc" />
    <path
       sodipodi:type="arc"
       style="fill:#009900;fill-opacity:1;stroke:none"
       id="path3737"
       sodipodi:cx="45.714287"
       sodipodi:cy="107.00504"
       sodipodi:rx="6.4285712"
       sodipodi:ry="6.4285712"
       d="m 52.142858,107.00504 a 6.4285712,6.4285712 0 1 1 -12.857142,0 6.4285712,6.4285712 0 1 1 12.857142,0 z"
       transform="translate(-213.20554,5.2839224)"
       inkscape:export-filename="C:\Users\manu\Desktop\mrcards\branches\spot\data\close.png"
       inkscape:export-xdpi="90"
       inkscape:export-ydpi="90" />
    <path
       transform="matrix(0.77525853,0,0,0.94107443,-202.93165,11.589256)"
       d="m 52.142858,107.00504 a 6.4285712,6.4285712 0 1 1 -12.857142,0 6.4285712,6.4285712 0 1 1 12.857142,0 z"
       sodipodi:ry="6.4285712"
       sodipodi:rx="6.4285712"
       sodipodi:cy="107.00504"
       sodipodi:cx="45.714287"
       id="path3739"
       style="fill:#66cc33;fill-opacity:1;stroke:none;filter:url(#filter3707)"
       sodipodi:type="arc" />
    <path
       sodipodi:type="arc"
       style="fill:url(#radialGradient3747);fill-opacity:1;stroke:none;filter:url(#filter3715)"
       id="path3741"
       sodipodi:cx="45.714287"
       sodipodi:cy="107.00504"
       sodipodi:rx="6.4285712"
       sodipodi:ry="6.4285712"
       d="m 52.142858,107.00504 a 6.4285712,6.4285712 0 1 1 -12.857142,0 6.4285712,6.4285712 0 1 1 12.857142,0 z"
       transform="matrix(0.45163872,0,0,0.32601508,-188.40546,73.385851)" />
    <path
       transform="matrix(0.94227672,0,0,0.68018176,-210.83462,44.282873)"
       d="m 52.142858,107.00504 a 6.4285712,6.4285712 0 1 1 -12.857142,0 6.4285712,6.4285712 0 1 1 12.857142,0 z"
       sodipodi:ry="6.4285712"
       sodipodi:rx="6.4285712"
       sodipodi:cy="107.00504"
       sodipodi:cx="45.714287"
       id="path3743"
       style="fill:url(#radialGradient3749);fill-opacity:1;stroke:none;filter:url(#filter3711);opacity:0.7"
       sodipodi:type="arc" />
    <path
       sodipodi:type="arc"
       style="opacity:0.5;fill:url(#radialGradient3761);fill-opacity:1;stroke:none"
       id="path3751"
       sodipodi:cx="45.714287"
       sodipodi:cy="107.00504"
       sodipodi:rx="6.4285712"
       sodipodi:ry="6.4285712"
       d="m 52.142858,107.00504 a 6.4285712,6.4285712 0 1 1 -12.857142,0 6.4285712,6.4285712 0 1 1 12.857142,0 z"
       transform="matrix(1.1642837,0,0,1.1642837,-180.37735,7.704736)"
       inkscape:export-filename="C:\Users\manu\Desktop\mrcards\branches\spot\data\close_press.png"
       inkscape:export-xdpi="90"
       inkscape:export-ydpi="90" />
    <path
       inkscape:export-ydpi="90"
       inkscape:export-xdpi="90"
       inkscape:export-filename="C:\Users\manu\Desktop\mrcards\branches\spot\data\close.png"
       transform="translate(-172.86724,25.283922)"
       d="m 52.142858,107.00504 a 6.4285712,6.4285712 0 1 1 -12.857142,0 6.4285712,6.4285712 0 1 1 12.857142,0 z"
       sodipodi:ry="6.4285712"
       sodipodi:rx="6.4285712"
       sodipodi:cy="107.00504"
       sodipodi:cx="45.714287"
       id="path3753"
       style="fill:#990000;fill-opacity:1;stroke:none"
       sodipodi:type="arc" />
    <path
       sodipodi:type="arc"
       style="fill:#ff3300;fill-opacity:1;stroke:none;filter:url(#filter3707)"
       id="path3755"
       sodipodi:cx="45.714287"
       sodipodi:cy="107.00504"
       sodipodi:rx="6.4285712"
       sodipodi:ry="6.4285712"
       d="m 52.142858,107.00504 a 6.4285712,6.4285712 0 1 1 -12.857142,0 6.4285712,6.4285712 0 1 1 12.857142,0 z"
       transform="matrix(0.77525853,0,0,0.94107443,-162.59335,31.589256)" />
    <g
       id="g3771"
       transform="matrix(0.53567831,0.53567831,-0.53567831,0.53567831,11.824459,129.53772)"
       style="opacity:0.7">
      <rect
         y="131.03897"
         x="-132.15295"
         height="2.5"
         width="10"
         id="rect3767"
         style="fill:#650000;fill-opacity:1;stroke:none" />
      <rect
         transform="matrix(0,1,-1,0,0,0)"
         style="fill:#650000;fill-opacity:1;stroke:none"
         id="rect3769"
         width="10"
         height="2.5"
         x="127.28897"
         y="125.90295" />
    </g>
    <path
       transform="matrix(0.45163872,0,0,0.32601508,-148.06716,93.38585)"
       d="m 52.142858,107.00504 a 6.4285712,6.4285712 0 1 1 -12.857142,0 6.4285712,6.4285712 0 1 1 12.857142,0 z"
       sodipodi:ry="6.4285712"
       sodipodi:rx="6.4285712"
       sodipodi:cy="107.00504"
       sodipodi:cx="45.714287"
       id="path3757"
       style="fill:url(#radialGradient3763);fill-opacity:1;stroke:none;filter:url(#filter3715)"
       sodipodi:type="arc" />
    <path
       sodipodi:type="arc"
       style="opacity:0.7;fill:url(#radialGradient3765);fill-opacity:1;stroke:none;filter:url(#filter3711)"
       id="path3759"
       sodipodi:cx="45.714287"
       sodipodi:cy="107.00504"
       sodipodi:rx="6.4285712"
       sodipodi:ry="6.4285712"
       d="m 52.142858,107.00504 a 6.4285712,6.4285712 0 1 1 -12.857142,0 6.4285712,6.4285712 0 1 1 12.857142,0 z"
       transform="matrix(0.94227672,0,0,0.68018176,-170.49632,64.282873)" />
  </g>
</svg>
